<svg xmlns="http://www.w3.org/2000/svg" viewBox="0 0 512 512" style="enable-background:new 0 0 512 512" xml:space="preserve"><path d="M112 361.7V499c0 7.2-5.8 13-13 13H77c-7.2 0-13-5.8-13-13V386.4c0-3.3-1.2-6.4-3.5-8.8C21.7 336.1 0 281.2 0 224.2 0 100.6 100.2 0 224 0h32c100.4 0 182.8 77 191.3 175.3.2 2.7 1.4 5.3 3.2 7.4l53.4 60.1 4.8 5.4c2.1 2.4 3.3 5.4 3.3 8.6V323c0 7.2-5.8 13-13 13h-38c-7.2 0-13 5.8-13 13v85.4c0 7-5.6 12.7-12.6 13l-19.4.6h-83c-7.2 0-13 5.8-13 13v38c0 7.2-5.8 13-13 13h-22c-7.2 0-13-5.8-13-13v-86c0-7.2 5.8-13 13-13h35l67.2-.8c7.1-.1 12.8-5.9 12.8-13V301c0-7.2 5.8-13 13-13h38c7.2 0 13-5.8 13-13 0-3.2-1.2-6.2-3.3-8.6l-49-55.1-8-9c-1.9-2.2-3.1-4.9-3.3-7.8l-.8-12C394.8 107.4 332.3 48 256 48h-32c-97.2 0-176 79-176 176.2 0 46.1 18.1 90.5 50.3 123.4l13.7 14v.1zM311.3 192H272v16c0 22.1-17.9 40-40 40h-8v52c0 11-9 20-20 20h-8c-11 0-20-9-20-20v-52h-16c-22.1 0-40-17.9-40-40v-3.3c-14.1-6.2-24-20.3-24-36.7 0-22.1 17.9-40 40-40h.2c2-18 17.2-32 35.8-32 6.2 0 12.1 1.6 17.2 4.3C196 88.2 209.1 80 224 80s28 8.2 34.8 20.3c5.1-2.8 10.9-4.3 17.2-4.3 12.7 0 23.8 6.5 30.2 16.4 1.9-.3 3.8-.4 5.8-.4 22.4 0 40.5 18.4 40 40.9-.5 21.8-18.8 39.1-40.7 39.1z"/></svg>