<svg xmlns="http://www.w3.org/2000/svg" viewBox="0 0 640 512"><path d="m630.812 469.109-55.947-43.849c.457-3.065 1.121-6.065 1.121-9.26V96c0-35.346-28.655-64-64-64h-384c-14.434 0-27.557 4.98-38.209 13.059L38.812 5.113c-10.469-8.172-25.5-6.359-33.703 4.078-8.172 10.438-6.344 25.532 4.078 33.704l592 463.996c4.406 3.437 9.609 5.109 14.797 5.109 7.125 0 14.172-3.156 18.906-9.188 8.172-10.437 6.344-25.531-4.078-33.703ZM223.14 149.586l-64.287-50.389A47.457 47.457 0 0 1 175.986 96c26.51 0 48 21.492 48 48 0 1.945-.621 3.701-.846 5.586Zm108.094 84.721 23.453-35.182c2.967-4.453 7.963-7.125 13.312-7.125s10.346 2.672 13.313 7.125L485.236 355.01 331.234 234.307ZM145.999 416a15.993 15.993 0 0 1-14.261-8.75 15.989 15.989 0 0 1 1.334-16.676l70-96a15.995 15.995 0 0 1 25.855 0l32.455 44.512 16.432-24.647L63.986 146.846V416c0 35.346 28.654 64 64 64h361.062l-81.656-64H145.999Z"/></svg>