<svg xmlns="http://www.w3.org/2000/svg" viewBox="0 0 640 512"><path d="M480 96h-96c-17.688 0-32 14.328-32 32s14.312 32 32 32h96c52.938 0 96 43.062 96 96s-43.062 96-96 96h-96c-17.688 0-32 14.328-32 32s14.312 32 32 32h96c88.219 0 160-71.781 160-160S568.219 96 480 96ZM256 352h-96c-52.938 0-96-43.062-96-96s43.062-96 96-96h96c17.688 0 32-14.328 32-32s-14.312-32-32-32h-96C71.781 96 0 167.781 0 256s71.781 160 160 160h96c17.688 0 32-14.328 32-32s-14.312-32-32-32Zm-64-96c0 17.672 14.312 32 32 32h192c17.688 0 32-14.328 32-32s-14.312-32-32-32H224c-17.688 0-32 14.328-32 32Z"/></svg>