<svg xmlns="http://www.w3.org/2000/svg" viewBox="0 0 512 512"><path d="m290.59 309.678-20.84 72.937c64.156-6.937 114.246-60.578 114.246-126.615 0-70.75-57.277-128-127.996-128-66.008 0-119.672 50.068-126.609 114.248l72.894-20.826C213.719 203.779 233.508 192 256 192c35.238 0 64.059 28.75 64.059 64 0 22.504-11.809 42.262-29.469 53.678Zm-23.278-64.99c-4.093-4.094-10.14-5.626-15.703-4.079l-224 64a16 16 0 0 0-11.578 14.375c-.422 6.766 3.438 13.063 9.672 15.719l74.438 31.908-95.453 95.453c-6.251 6.248-6.251 16.379 0 22.627l22.621 22.623c6.25 6.248 16.379 6.248 22.629 0l95.453-95.453 31.906 74.436A15.976 15.976 0 0 0 192 496c.328 0 .672-.016 1.016-.031a16 16 0 0 0 14.375-11.578l64-224a16.002 16.002 0 0 0-4.079-15.703ZM256 16C123.461 16 16 123.42 16 256c0 6.316.465 12.516.945 18.709.664-.223 1.196-.676 1.875-.869l61.25-17.5c0-.115-.015-.225-.015-.34 0-97.326 78.648-176 175.945-176s175.945 78.674 175.945 176S353.297 432 256 432c-.121 0-.234-.018-.355-.018l-17.485 61.19c-.195.682-.652 1.215-.871 1.883 6.195.478 12.391.945 18.711.945 132.539 0 240-107.42 240-240S388.539 16 256 16Z"/></svg>