<svg xmlns="http://www.w3.org/2000/svg" viewBox="0 0 640 512"><path d="M436 280h24c6.656 0 12-5.344 12-12v-24c0-6.656-5.344-12-12-12h-24c-6.656 0-12 5.344-12 12v24c0 6.656 5.344 12 12 12Zm-152-48h-24c-6.656 0-12 5.344-12 12v24c0 6.656 5.344 12 12 12h24c6.656 0 12-5.344 12-12v-24c0-6.656-5.344-12-12-12Zm72-32h24c6.656 0 12-5.344 12-12v-24c0-6.656-5.344-12-12-12h-24c-6.656 0-12 5.344-12 12v24c0 6.656 5.344 12 12 12Zm80 0h24c6.656 0 12-5.344 12-12v-24c0-6.656-5.344-12-12-12h-24c-6.656 0-12 5.344-12 12v24c0 6.656 5.344 12 12 12Zm-315.031-40.969c-9.375-9.375-24.563-9.375-33.938 0l-80 80A23.925 23.925 0 0 0 0 256a23.925 23.925 0 0 0 7.031 16.969l80 80A23.9 23.9 0 0 0 104 360a23.9 23.9 0 0 0 16.969-7.031c9.375-9.375 9.375-24.563 0-33.938L57.938 256l63.031-63.031c9.375-9.375 9.375-24.563 0-33.938ZM356 280h24c6.656 0 12-5.344 12-12v-24c0-6.656-5.344-12-12-12h-24c-6.656 0-12 5.344-12 12v24c0 6.656 5.344 12 12 12Zm184-128h-24c-6.656 0-12 5.344-12 12v24c0 6.656 5.344 12 12 12h24c6.656 0 12-5.344 12-12v-24c0-6.656-5.344-12-12-12Zm36-88H224c-35.346 0-64 28.654-64 64v256c0 35.346 28.654 64 64 64h352c35.346 0 64-28.654 64-64V128c0-35.346-28.654-64-64-64Zm16 320c0 8.822-7.178 16-16 16H224c-8.822 0-16-7.178-16-16V128c0-8.822 7.178-16 16-16h352c8.822 0 16 7.178 16 16v256ZM284 152h-24c-6.656 0-12 5.344-12 12v24c0 6.656 5.344 12 12 12h24c6.656 0 12-5.344 12-12v-24c0-6.656-5.344-12-12-12Zm196 168H320c-8.875 0-16 7.125-16 16v16c0 8.875 7.125 16 16 16h160c8.875 0 16-7.125 16-16v-16c0-8.875-7.125-16-16-16Zm60-88h-24c-6.656 0-12 5.344-12 12v24c0 6.656 5.344 12 12 12h24c6.656 0 12-5.344 12-12v-24c0-6.656-5.344-12-12-12Z"/></svg>