<svg xmlns="http://www.w3.org/2000/svg" viewBox="0 0 512 512"><path d="M120.234 154.188c4.672 4.687 10.828 7.031 16.969 7.031s12.281-2.344 16.969-7.031c9.375-9.376 9.375-24.563 0-33.938l-45.25-45.281c-9.344-9.375-24.563-9.375-33.938 0s-9.375 24.562 0 33.937l45.25 45.282ZM256 112c13.25 0 24-10.75 24-24V24c0-13.25-10.75-24-24-24s-24 10.75-24 24v64c0 13.25 10.75 24 24 24ZM112 256c0-13.25-10.75-24-24-24H24c-13.25 0-24 10.75-24 24s10.75 24 24 24h64c13.25 0 24-10.75 24-24Zm262.797-94.781c6.14 0 12.297-2.344 16.969-7.032l45.25-45.281c9.375-9.375 9.375-24.562 0-33.937s-24.594-9.375-33.938 0l-45.25 45.281c-9.375 9.375-9.375 24.562 0 33.937a23.922 23.922 0 0 0 16.969 7.032ZM256 400c-13.25 0-24 10.75-24 24v64c0 13.25 10.75 24 24 24s24-10.75 24-24v-64c0-13.25-10.75-24-24-24Zm-135.766-42.188-45.25 45.282c-9.375 9.375-9.375 24.562 0 33.937 4.688 4.688 10.828 7.032 16.969 7.032s12.297-2.344 16.969-7.032l45.25-45.281c9.375-9.375 9.375-24.562 0-33.938s-24.594-9.374-33.938 0ZM488 232h-64c-13.25 0-24 10.75-24 24s10.75 24 24 24h64c13.25 0 24-10.75 24-24s-10.75-24-24-24Zm-96.234 125.812c-9.344-9.375-24.563-9.375-33.938 0s-9.375 24.563 0 33.938l45.25 45.281c4.672 4.688 10.828 7.032 16.969 7.032s12.281-2.344 16.969-7.032c9.375-9.375 9.375-24.562 0-33.937l-45.25-45.282ZM256 144c-61.855 0-112 50.143-112 112 0 61.855 50.145 112 112 112s112-50.145 112-112c0-61.857-50.145-112-112-112Z"/></svg>