<svg xmlns="http://www.w3.org/2000/svg" viewBox="0 0 640 512"><path d="M144 333.88C144 432.38 222.76 512 320 512c52.81 0 100-23.6 132.29-60.83L174.78 233.66C156.6 263.93 144 294.65 144 333.88Zm348.52-34.83-239.1-186.93A465 465 0 0 0 274 69.22l21.25 18.57c10-17.75 15.83-43.71 24.72-65.5 23.15 56.83 44 98.1 68.2 132.66 4.2 6 7.16 8.69 10.95 14.21l46.75 34.52c21.53 31.17 39.41 60.09 46.66 95.37ZM295.28 87.79 274 69.22a462.4 462.4 0 0 0 16.72-47.09c9-30.12 50.5-28.87 58.5 0C374.2 106.28 414 157.46 445.9 203.68l-46.75-34.52c-3.79-5.52-6.75-8.21-10.95-14.21C364 120.39 343.15 79.12 320 22.29c-8.89 21.79-14.71 47.71-24.72 65.5ZM634 471 492.53 360.42 253.42 173.49 36 3.51A16 16 0 0 0 13.51 6l-10 12.49A16 16 0 0 0 6 41l30.88 24.12 77.77 60.8 113.83 89 265.38 207.46L604 508.49a16 16 0 0 0 22.49-2.49l10-12.49A16 16 0 0 0 634 471Z"/></svg>