<svg xmlns="http://www.w3.org/2000/svg" viewBox="0 0 576 512"><path d="M301.109 34.818c-11.5-5.187-24.953-3.093-34.375 5.282L131.84 160.004H48c-26.51 0-48 21.492-48 48v95.998c0 26.508 21.49 48 48 48h83.84l134.894 119.904A32.02 32.02 0 0 0 288 480c4.438 0 8.906-.906 13.109-2.812A31.99 31.99 0 0 0 320 448V64.006a31.99 31.99 0 0 0-18.891-29.188Zm212.829 221.18 47.031-47.031c9.375-9.375 9.375-24.563 0-33.938s-24.563-9.375-33.938 0L480 222.061l-47.031-47.032c-9.375-9.375-24.563-9.375-33.938 0s-9.375 24.563 0 33.938l47.031 47.031-47.031 47.031c-9.375 9.375-9.375 24.563 0 33.938 9.373 9.373 24.557 9.381 33.938 0L480 289.936l47.031 47.031c9.373 9.373 24.557 9.381 33.938 0 9.375-9.375 9.375-24.563 0-33.938l-47.031-47.031Z"/></svg>