<svg xmlns="http://www.w3.org/2000/svg" viewBox="0 0 640 512"><path d="M599.999 160c-12.242 0-22.804 5.807-30.14 14.467C552.4 165.527 532.925 160 511.999 160c-70.578 0-128 57.406-128 128v64c0 70.594 57.422 128 128 128 20.926 0 40.401-5.527 57.86-14.467 7.336 8.66 17.898 14.467 30.14 14.467 22.094 0 40-17.906 40-40V200c0-22.094-17.906-40-40-40Zm-40 192c0 26.469-21.531 48-48 48s-48-21.531-48-48v-64c0-26.469 21.532-48 48-48s48 21.531 48 48v64ZM213.513 58.123C207.716 42.438 192.749 32 175.999 32s-31.716 10.438-37.513 26.123L2.492 426.109c-7.657 20.717 2.921 43.748 23.654 51.405 20.672 7.656 43.717-2.969 51.373-23.657l25.82-69.871H248.66l25.82 69.871c5.969 16.125 21.25 26.125 37.514 26.125 4.609 0 9.296-.781 13.859-2.468 20.732-7.657 31.31-30.688 23.654-51.405L213.513 58.123Zm-80.609 245.865 43.095-116.619 43.096 116.619h-86.191Z"/></svg>