<svg xmlns="http://www.w3.org/2000/svg" viewBox="0 0 576 512"><path d="M288 64C39.52 64 0 182.096 0 273.455 0 379.492 78.799 448 176 448c27.328 0 51.207-6.516 66.107-36.795l19.926-40.496c6.266-12.133 16.067-18.262 25.967-18.633 9.9.371 19.701 6.5 25.967 18.633l19.926 40.496C348.795 441.484 372.674 448 400 448c97.201 0 176-68.508 176-174.545C576 182.096 536.48 64 288 64ZM160 320c-35.346 0-64-28.654-64-64s28.654-64 64-64c35.348 0 64 28.654 64 64s-28.652 64-64 64Zm256 0c-35.346 0-64-28.654-64-64s28.654-64 64-64c35.348 0 64 28.654 64 64s-28.652 64-64 64Z"/></svg>