<svg xmlns="http://www.w3.org/2000/svg" viewBox="0 0 640 512"><path d="m630.812 469.109-54.813-42.961V80c0-26.51-21.49-48-48-48h-416c-10.302 0-19.793 3.312-27.611 8.836L38.812 5.113c-10.469-8.172-25.5-6.359-33.703 4.078-8.172 10.438-6.344 25.532 4.078 33.704l592 463.996c4.406 3.437 9.609 5.109 14.797 5.109 7.125 0 14.172-3.156 18.906-9.188 8.172-10.437 6.344-25.531-4.078-33.703ZM415.999 208c0 8.836-7.164 16-16 16h-81.916l-94.084-73.74V112c0-8.838 7.164-16 16-16h160c8.836 0 16 7.162 16 16v96Zm112 180.527L481.396 352h38.603a8 8 0 0 1 8 8v28.527Zm0-108.527a8 8 0 0 1-8 8h-48a8 8 0 0 1-8-8v-48a8 8 0 0 1 8-8h48a8 8 0 0 1 8 8v48Zm0-128a8 8 0 0 1-8 8h-48a8 8 0 0 1-8-8v-48a8 8 0 0 1 8-8h48a8 8 0 0 1 8 8v48Zm-128 264h-160c-8.836 0-16-7.164-16-16v-96c0-8.838 7.164-16 16-16h4.082l-68.082-53.361V280a8 8 0 0 1-8 8h-48a8 8 0 0 1-8-8v-48a8 8 0 0 1 8-8h42.426l-98.426-77.145V432c0 26.51 21.491 48 48 48h377.049l-83.17-65.188c-1.826.727-3.793 1.188-5.879 1.188Zm-224-8a8 8 0 0 1-8 8h-48a8 8 0 0 1-8-8v-48a8 8 0 0 1 8-8h48a8 8 0 0 1 8 8v48Z"/></svg>