<svg xmlns="http://www.w3.org/2000/svg" viewBox="0 0 576 512"><path d="M512 448H64c-35.346 0-64-28.654-64-64V128c0-35.346 28.654-64 64-64h448c35.346 0 64 28.654 64 64v256c0 35.346-28.654 64-64 64ZM128 180v-40c0-6.625-5.375-12-12-12H76c-6.625 0-12 5.375-12 12v40c0 6.625 5.375 12 12 12h40c6.625 0 12-5.375 12-12Zm96 0v-40c0-6.625-5.375-12-12-12h-40c-6.625 0-12 5.375-12 12v40c0 6.625 5.375 12 12 12h40c6.625 0 12-5.375 12-12Zm96 0v-40c0-6.625-5.375-12-12-12h-40c-6.625 0-12 5.375-12 12v40c0 6.625 5.375 12 12 12h40c6.625 0 12-5.375 12-12Zm96 0v-40c0-6.625-5.375-12-12-12h-40c-6.625 0-12 5.375-12 12v40c0 6.625 5.375 12 12 12h40c6.625 0 12-5.375 12-12Zm96 0v-40c0-6.625-5.375-12-12-12h-40c-6.625 0-12 5.375-12 12v40c0 6.625 5.375 12 12 12h40c6.625 0 12-5.375 12-12Zm-384 96v-40c0-6.625-5.375-12-12-12H76c-6.625 0-12 5.375-12 12v40c0 6.625 5.375 12 12 12h40c6.625 0 12-5.375 12-12Zm96 0v-40c0-6.625-5.375-12-12-12h-40c-6.625 0-12 5.375-12 12v40c0 6.625 5.375 12 12 12h40c6.625 0 12-5.375 12-12Zm96 0v-40c0-6.625-5.375-12-12-12h-40c-6.625 0-12 5.375-12 12v40c0 6.625 5.375 12 12 12h40c6.625 0 12-5.375 12-12Zm96 0v-40c0-6.625-5.375-12-12-12h-40c-6.625 0-12 5.375-12 12v40c0 6.625 5.375 12 12 12h40c6.625 0 12-5.375 12-12Zm96 0v-40c0-6.625-5.375-12-12-12h-40c-6.625 0-12 5.375-12 12v40c0 6.625 5.375 12 12 12h40c6.625 0 12-5.375 12-12Zm-384 96v-40c0-6.625-5.375-12-12-12H76c-6.625 0-12 5.375-12 12v40c0 6.625 5.375 12 12 12h40c6.625 0 12-5.375 12-12Zm288 0v-40c0-6.625-5.375-12-12-12H172c-6.625 0-12 5.375-12 12v40c0 6.625 5.375 12 12 12h232c6.625 0 12-5.375 12-12Zm96 0v-40c0-6.625-5.375-12-12-12h-40c-6.625 0-12 5.375-12 12v40c0 6.625 5.375 12 12 12h40c6.625 0 12-5.375 12-12Z"/></svg>