<svg xmlns="http://www.w3.org/2000/svg" viewBox="0 0 512 512" style="enable-background:new 0 0 512 512" xml:space="preserve"><path d="M288 159v-1c0-.4-.1-.8-.1-1.2v-.3c0-.5-.1-.9-.2-1.4-.1-.5-.2-1-.3-1.4-2.6-12.4-12.5-22.3-24.9-24.9-.5-.1-1-.2-1.4-.3-.5-.1-.9-.1-1.4-.2h-.3c-.4 0-.8-.1-1.2-.1h-4c-.4 0-.8.1-1.2.1h-.3c-.5 0-.9.1-1.4.2-.5.1-1 .2-1.4.3-12.5 2.6-22.3 12.4-24.9 24.9-.1.5-.2 1-.3 1.4-.1.5-.1.9-.2 1.4v.3c0 .4-.1.8-.1 1.2v4c0 .4.1.8.1 1.2v.3c0 .5.1.9.2 1.4.1.5.2 1 .3 1.4 2.6 12.4 12.5 22.3 24.9 24.9.5.1 1 .2 1.4.3.5.1.9.1 1.4.2h.3c.4 0 .8.1 1.2.1h4c.4 0 .8-.1 1.2-.1h.3c.5 0 .9-.1 1.4-.2.5-.1 1-.2 1.4-.3 12.5-2.6 22.3-12.4 24.9-24.9.1-.5.2-1 .3-1.4.1-.5.1-.9.2-1.4v-.3c0-.4.1-.8.1-1.2v-3zm20.5 180.5L263.9 384h31.5c12.7 0 24.1-10.4 24.5-23.1.4-9.1-4.3-17.1-11.4-21.4zM288 159v-1c0-.4-.1-.8-.1-1.2v-.3c0-.5-.1-.9-.2-1.4-.1-.5-.2-1-.3-1.4-2.6-12.5-12.4-22.3-24.9-24.9-.5-.1-1-.2-1.4-.3-.5-.1-.9-.1-1.4-.2h-.3c-.4 0-.8-.1-1.2-.1h-4c-.4 0-.8.1-1.2.1h-.3c-.5 0-.9.1-1.4.2-.5.1-1 .2-1.4.3-12.4 2.6-22.3 12.5-24.9 24.9-.1.5-.2 1-.3 1.4-.1.5-.1.9-.2 1.4v.3c0 .4-.1.8-.1 1.2v4c0 .4.1.8.1 1.2v.3c0 .5.1.9.2 1.4.1.5.2 1 .3 1.4 2.6 12.5 12.4 22.3 24.9 24.9.5.1 1 .2 1.4.3.5.1.9.1 1.4.2h.3c.4 0 .8.1 1.2.1h4c.4 0 .8-.1 1.2-.1h.3c.5 0 .9-.1 1.4-.2.5-.1 1-.2 1.4-.3 12.4-2.6 22.3-12.5 24.9-24.9.1-.5.2-1 .3-1.4.1-.5.1-.9.2-1.4v-.3c0-.4.1-.8.1-1.2v-3zm20.5 180.5L263.9 384h31.5c12.7 0 24.1-10.4 24.5-23.1.4-9.1-4.3-17.1-11.4-21.4zm183.3-183.3-37.3 37.3c9 28.5 12 59.8 7.5 92.2-12.7 91.3-85 163.6-176.3 176.2-32.4 4.5-63.6 1.5-92.2-7.5l-37.3 37.3c45.9 19.5 98.8 25.9 153.8 14.7 89.4-18.3 178.3-107.2 196.6-196.6 11.1-54.9 4.7-107.7-14.8-153.6zM308.5 339.5 263.9 384h31.5c12.7 0 24.1-10.4 24.5-23.1.4-9.1-4.3-17.1-11.4-21.4zM288 159v-1c0-.4-.1-.8-.1-1.2v-.3c0-.5-.1-.9-.2-1.4-.1-.5-.2-1-.3-1.4-2.6-12.4-12.5-22.3-24.9-24.9-.5-.1-1-.2-1.4-.3-.5-.1-.9-.1-1.4-.2h-.3c-.4 0-.8-.1-1.2-.1h-4c-.4 0-.8.1-1.2.1h-.3c-.5 0-.9.1-1.4.2-.5.1-1 .2-1.4.3-12.5 2.6-22.3 12.4-24.9 24.9-.1.5-.2 1-.3 1.4-.1.5-.1.9-.2 1.4v.3c0 .4-.1.8-.1 1.2v4c0 .4.1.8.1 1.2v.3c0 .5.1.9.2 1.4.1.5.2 1 .3 1.4 2.6 12.4 12.5 22.3 24.9 24.9.5.1 1 .2 1.4.3.5.1.9.1 1.4.2h.3c.4 0 .8.1 1.2.1h4c.4 0 .8-.1 1.2-.1h.3c.5 0 .9-.1 1.4-.2.5-.1 1-.2 1.4-.3 12.5-2.6 22.3-12.4 24.9-24.9.1-.5.2-1 .3-1.4.1-.5.1-.9.2-1.4v-.3c0-.4.1-.8.1-1.2v-3zM288 248v44.1l-86.8 86.8c-5.9-4.6-9.5-11.9-9.1-20 .6-12.9 11.6-22.9 24.5-22.9H240v-64h-24c-13.8 0-24.9-11.6-23.9-25.7.8-12.7 11.7-22.3 24.4-22.3H264c13.2 0 24 10.8 24 24z"/><path d="m467.8 112.2-34.7 34.7c-40.3-65.3-115.8-106.7-200-97.7-96.6 10.3-173.6 87.3-183.9 183.9-9 84.2 32.4 159.7 97.7 200l-34.7 34.7C31.9 413.2-15.7 314.2 4.7 206.1 24 104.2 104.2 24 206.1 4.7c108.1-20.4 207.1 27.2 261.7 107.5z"/><path d="M503 76.9 76.9 503c-9.4 9.4-24.6 9.4-33.9 0-9.4-9.4-9.4-24.6 0-33.9L469.1 43c9.4-9.4 24.6-9.4 33.9 0 9.4 9.4 9.4 24.6 0 33.9z"/></svg>