<svg xmlns="http://www.w3.org/2000/svg" viewBox="0 0 640 512"><path d="M38.8 5.1C28.4-3.1 13.3-1.2 5.1 9.2s-6.3 25.5 4.1 33.7l592 464c10.4 8.2 25.5 6.3 33.7-4.1s6.3-25.5-4.1-33.7l-82.3-64.5C565.1 393 576 373.8 576 352V64c0-35.3-28.7-64-64-64H128c-23.6 0-44.2 12.7-55.3 31.7L38.8 5.1zm73.3 57.4c.7-8.1 7.6-14.5 15.9-14.5h384c8.8 0 16 7.2 16 16v288c0 8.8-7.2 16-16 16h-10.2L112.1 62.5zM224 368h-96c-8.8 0-16-7.2-16-16V184.2l-48-37.8V352c0 35.3 28.7 64 64 64h96v80c0 6.1 3.4 11.6 8.8 14.3s11.9 2.1 16.8-1.5l17.1-12.8 5.1-3.8.2-.2 101.3-76h32.8l-54.4-42.9c-2.5 1.3-4.9 2.8-7.2 4.5L272 432v-16c0-26.5-21.5-48-48-48z"/></svg>