<svg xmlns="http://www.w3.org/2000/svg" viewBox="0 0 448 512" style="enable-background:new 0 0 448 512" xml:space="preserve"><path d="M246.6 502.6c-12.5 12.5-32.8 12.5-45.3 0l-128-128c-12.5-12.5-12.5-32.8 0-45.3s32.8-12.5 45.3 0l73.4 73.4V224c0-17.7 14.3-32 32-32s32 14.3 32 32v178.7l73.4-73.4c12.5-12.5 32.8-12.5 45.3 0s12.5 32.8 0 45.3l-128.1 128zM224 158c43.6 0 79-35.4 79-79S267.6 0 224 0s-79 35.4-79 79 35.4 79 79 79zm0-111c17.7 0 32 14.3 32 32s-14.3 32-32 32-32-14.3-32-32 14.3-32 32-32z"/></svg>