<svg xmlns="http://www.w3.org/2000/svg" viewBox="0 0 512 512"><path fill="currentColor" d="M208 416c0-26.5-21.5-48-48-48H64c-8.8 0-16-7.2-16-16V64c0-8.8 7.2-16 16-16h384c8.8 0 16 7.2 16 16v288c0 8.8-7.2 16-16 16H309.3c-10.4 0-20.5 3.4-28.8 9.6L208 432v-16zm-.2 76.2.2-.2 101.3-76H448c35.3 0 64-28.7 64-64V64c0-35.3-28.7-64-64-64H64C28.7 0 0 28.7 0 64v288c0 35.3 28.7 64 64 64h96v80c0 6.1 3.4 11.6 8.8 14.3s11.9 2.1 16.8-1.5l17.1-12.8 5.1-3.8zM144 240a32 32 0 1 0 0-64 32 32 0 1 0 0 64zm144-32a32 32 0 1 0-64 0 32 32 0 1 0 64 0zm80 32a32 32 0 1 0 0-64 32 32 0 1 0 0 64z"/></svg>